# xmcd CD database file
#
# Track frame offsets:
#	150
#	19820
#	35967
#	59659
#	75085
#	92088
#	114913
#	130076
#	149055
#	166517
#	177397
#	195435
#	210961
#	233725
#	251787
#
# Disc length: 3621 seconds
#
# Revision: 0
# Processed by: cddbd v1.4PL0 Copyright (c) Steve Scherf et al.
# Submitted via: CDex 1.50Beta7
#
DISCID=c50e230f
DTITLE=Nisse Hellberg and Peps Persson - Röster Från Södern
DYEAR=1900
DGENRE=Blues
TTITLE0=En Man Steg Av Båten
TTITLE1=Det Är Nåt Magiskt Med Dej
TTITLE2=Explosiv
TTITLE3=Skuggan Bakom Dej
TTITLE4=MS Colinda
TTITLE5=Herr Blues Hälsar På
TTITLE6=Blues Cocktail
TTITLE7=Blondin På Villovägar
TTITLE8=Stjärnan I Mitt Liv
TTITLE9=Rum Nr 5
TTITLE10=Blues ABC
TTITLE11=Kasino Blues
TTITLE12=Ge Mej Lite Harmoni
TTITLE13=Bonusspår - Blues ABC
TTITLE14=Bonusspår - Stjärnan I Mitt Liv
EXTD=
EXTT0=
EXTT1=
EXTT2=
EXTT3=
EXTT4=
EXTT5=
EXTT6=
EXTT7=
EXTT8=
EXTT9=
EXTT10=
EXTT11=
EXTT12=
EXTT13=
EXTT14=
PLAYORDER=
